<?xml version="1.0" encoding="UTF-8"?>
<svg version="1.1" xmlns="http://www.w3.org/2000/svg" width="231" height="231">
<path d="M0 0 C1.9339563 0.00616333 1.9339563 0.00616333 3.90698242 0.01245117 C4.60579025 0.01290939 5.30459808 0.01336761 6.02458191 0.01383972 C7.51168504 0.01686613 8.99878488 0.02476401 10.48583984 0.03710938 C12.7155336 0.05504257 14.94480315 0.0576211 17.17456055 0.05737305 C39.41867969 0.1117232 39.41867969 0.1117232 46.94995117 2.24291992 C46.94995117 2.90291992 46.94995117 3.56291992 46.94995117 4.24291992 C47.80202148 4.18104492 48.6540918 4.11916992 49.53198242 4.05541992 C53.55763467 4.2762557 56.04720122 5.44154015 59.63745117 7.24291992 C64.09051522 9.58962386 64.09051522 9.58962386 68.94995117 10.24291992 C68.94995117 10.90291992 68.94995117 11.56291992 68.94995117 12.24291992 C69.67182617 12.32541992 70.39370117 12.40791992 71.13745117 12.49291992 C74.51674713 13.39406551 76.32719187 14.97458755 78.94995117 17.24291992 C79.60995117 17.57291992 80.26995117 17.90291992 80.94995117 18.24291992 C82.63523805 19.89075598 84.29879848 21.56088236 85.94995117 23.24291992 C87.27833008 24.5190918 87.27833008 24.5190918 88.63354492 25.82104492 C93.70225943 30.73877644 98.13322269 35.39339746 101.53588867 41.66088867 C102.89478765 43.54378052 102.89478765 43.54378052 105.61401367 43.48120117 C106.38487305 43.40256836 107.15573242 43.32393555 107.94995117 43.24291992 C107.57870117 44.72791992 107.57870117 44.72791992 107.19995117 46.24291992 C106.56202706 50.41919642 107.97384993 52.97907066 110.03979492 56.54370117 C110.94995117 58.24291992 110.94995117 58.24291992 110.94995117 60.24291992 C111.60995117 60.57291992 112.26995117 60.90291992 112.94995117 61.24291992 C121.44786895 87.48101643 118.28969564 114.98251665 105.94995117 139.24291992 C99.48985912 151.30694724 90.20186447 160.88509455 79.45776367 169.20776367 C76.83466819 171.26324417 76.83466819 171.26324417 74.25073242 173.95385742 C71.87808894 176.31441613 71.12480481 176.76188149 67.94995117 177.24291992 C64.33543286 178.33568127 60.94024275 179.67476357 57.51245117 181.24291992 C52.3026034 183.59349097 47.74573449 185.24291992 41.94995117 185.24291992 C41.61995117 185.90291992 41.28995117 186.56291992 40.94995117 187.24291992 C39.29995117 186.91291992 37.64995117 186.58291992 35.94995117 186.24291992 C35.94995117 187.89291992 35.94995117 189.54291992 35.94995117 191.24291992 C35.28995117 189.92291992 34.62995117 188.60291992 33.94995117 187.24291992 C33.33120117 187.40791992 32.71245117 187.57291992 32.07495117 187.74291992 C27.69524388 188.44367309 23.37566129 188.32026243 18.94995117 188.24291992 C18.94995117 188.90291992 18.94995117 189.56291992 18.94995117 190.24291992 C15.61661784 190.24291992 12.28328451 190.24291992 8.94995117 190.24291992 C8.94995117 189.58291992 8.94995117 188.92291992 8.94995117 188.24291992 C5.88924183 187.56784926 2.82613027 186.9043707 -0.23754883 186.24291992 C-1.10186523 186.05213867 -1.96618164 185.86135742 -2.85668945 185.66479492 C-3.69780273 185.48432617 -4.53891602 185.30385742 -5.40551758 185.11791992 C-6.5602356 184.86655273 -6.5602356 184.86655273 -7.73828125 184.61010742 C-10.21065129 184.21741078 -12.55080692 184.18106707 -15.05004883 184.24291992 C-15.38004883 183.58291992 -15.71004883 182.92291992 -16.05004883 182.24291992 C-17.47317383 182.02635742 -17.47317383 182.02635742 -18.92504883 181.80541992 C-22.3435501 181.19008969 -22.85342619 180.72605855 -25.05004883 178.24291992 C-26.69610709 177.20934846 -28.35968325 176.2023166 -30.05004883 175.24291992 C-27.35018279 172.15597632 -23.97469751 170.24815715 -20.48754883 168.18041992 C-16.00984226 165.5650665 -16.00984226 165.5650665 -12.05004883 162.24291992 C-11.06004883 162.24291992 -10.07004883 162.24291992 -9.05004883 162.24291992 C-7.37265021 161.26102805 -5.70537505 160.26158221 -4.05004883 159.24291992 C-3.39004883 159.24291992 -2.73004883 159.24291992 -2.05004883 159.24291992 C-1.72004883 157.92291992 -1.39004883 156.60291992 -1.05004883 155.24291992 C-0.72004883 155.90291992 -0.39004883 156.56291992 -0.05004883 157.24291992 C0.93995117 156.91291992 1.92995117 156.58291992 2.94995117 156.24291992 C2.94995117 155.25291992 2.94995117 154.26291992 2.94995117 153.24291992 C4.93562826 152.75463867 6.92130534 152.26635742 8.90698242 151.77807617 C10.60678319 151.33281287 12.28297071 150.79858008 13.94995117 150.24291992 C14.0865918 149.59709961 14.22323242 148.9512793 14.36401367 148.28588867 C14.55737305 147.61170898 14.75073242 146.9375293 14.94995117 146.24291992 C16.91088867 145.23120117 16.91088867 145.23120117 19.32495117 144.55541992 C20.51217773 144.20930664 20.51217773 144.20930664 21.72338867 143.85620117 C22.4581543 143.65381836 23.19291992 143.45143555 23.94995117 143.24291992 C24.93995117 142.91291992 25.92995117 142.58291992 26.94995117 142.24291992 C26.94995117 141.25291992 26.94995117 140.26291992 26.94995117 139.24291992 C31.23995117 138.25291992 35.52995117 137.26291992 39.94995117 136.24291992 C39.94995117 135.58291992 39.94995117 134.92291992 39.94995117 134.24291992 C41.26245117 132.61791992 41.26245117 132.61791992 42.94995117 131.24291992 C43.93995117 131.24291992 44.92995117 131.24291992 45.94995117 131.24291992 C45.28995117 130.58291992 44.62995117 129.92291992 43.94995117 129.24291992 C45.16682617 129.13979492 46.38370117 129.03666992 47.63745117 128.93041992 C51.39684383 128.47876144 53.76816531 127.33380777 56.94995117 125.24291992 C57.93995117 125.24291992 58.92995117 125.24291992 59.94995117 125.24291992 C60.27995117 124.58291992 60.60995117 123.92291992 60.94995117 123.24291992 C62.67044117 122.23256506 64.42689516 121.28289268 66.19995117 120.36791992 C70.12964552 118.28329607 73.58182782 116.17644671 76.94995117 113.24291992 C77.60995117 112.91291992 78.26995117 112.58291992 78.94995117 112.24291992 C78.51682617 111.80979492 78.08370117 111.37666992 77.63745117 110.93041992 C75.94995117 109.24291992 75.94995117 109.24291992 74.57495117 107.61791992 C72.46935441 105.83626112 70.64502733 105.6071194 67.94995117 105.24291992 C67.94995117 103.92291992 67.94995117 102.60291992 67.94995117 101.24291992 C65.62910718 98.80174112 65.62910718 98.80174112 62.63745117 96.55541992 C61.65131836 95.76780273 60.66518555 94.98018555 59.64916992 94.16870117 C57.04517952 92.11157257 57.04517952 92.11157257 53.94995117 91.24291992 C51.69995117 89.55541992 51.69995117 89.55541992 49.94995117 87.24291992 C50.19995117 83.99291992 50.19995117 83.99291992 50.94995117 81.24291992 C51.27995117 81.90291992 51.60995117 82.56291992 51.94995117 83.24291992 C53.87110202 82.16755876 55.78670391 81.0822808 57.69995117 79.99291992 C59.3009668 79.08799805 59.3009668 79.08799805 60.93432617 78.16479492 C63.9633236 76.38724884 63.9633236 76.38724884 66.13745117 74.05541992 C68.5625425 71.63032859 70.60821634 71.546714 73.94995117 71.24291992 C74.60995117 69.26291992 75.26995117 67.28291992 75.94995117 65.24291992 C73.45930229 64.55584437 71.57108826 64.24291992 68.94995117 64.24291992 C68.72307617 63.29416992 68.49620117 62.34541992 68.26245117 61.36791992 C67.28817056 58.05347398 67.28817056 58.05347398 64.44995117 57.11791992 C63.62495117 56.82916992 62.79995117 56.54041992 61.94995117 56.24291992 C61.69084961 55.66026367 61.43174805 55.07760742 61.16479492 54.47729492 C59.42208838 51.27205974 56.94927689 49.74667359 54.01245117 47.61791992 C52.95155273 46.8419043 51.8906543 46.06588867 50.79760742 45.26635742 C46.30003458 42.07055121 44.43405147 41.13323792 38.94995117 41.24291992 C37.28328451 40.90958659 35.61661784 40.57625326 33.94995117 40.24291992 C32.89807617 40.28416992 31.84620117 40.32541992 30.76245117 40.36791992 C29.83432617 40.32666992 28.90620117 40.28541992 27.94995117 40.24291992 C27.28995117 39.25291992 26.62995117 38.26291992 25.94995117 37.24291992 C25.94995117 38.23291992 25.94995117 39.22291992 25.94995117 40.24291992 C23.82501976 40.26985567 21.69999205 40.28928621 19.57495117 40.30541992 C18.3915918 40.31702148 17.20823242 40.32862305 15.98901367 40.34057617 C11.91675064 40.20971939 11.91675064 40.20971939 9.94995117 38.24291992 C8.95995117 39.23291992 8.95995117 39.23291992 7.94995117 40.24291992 C4.88405145 41.36708315 3.03334306 41.1772811 -0.05004883 40.24291992 C-4.18943906 39.15952228 -4.18943906 39.15952228 -8.05004883 40.24291992 C-9.72659612 39.96349537 -11.39613037 39.63463745 -13.05004883 39.24291992 C-13.05004883 38.58291992 -13.05004883 37.92291992 -13.05004883 37.24291992 C-13.71004883 37.24291992 -14.37004883 37.24291992 -15.05004883 37.24291992 C-15.05004883 37.90291992 -15.05004883 38.56291992 -15.05004883 39.24291992 C-17.69004883 39.90291992 -20.33004883 40.56291992 -23.05004883 41.24291992 C-20.50201341 44.54037752 -18.53598838 46.91896022 -15.05004883 49.24291992 C-11.64764471 51.51118933 -9.62756348 54.08546447 -7.05004883 57.24291992 C-3.20789549 61.13080198 -3.20789549 61.13080198 1.94995117 62.24291992 C1.61995117 63.23291992 1.28995117 64.22291992 0.94995117 65.24291992 C1.60995117 65.24291992 2.26995117 65.24291992 2.94995117 65.24291992 C3.75432617 66.23291992 4.55870117 67.22291992 5.38745117 68.24291992 C6.23307617 69.23291992 7.07870117 70.22291992 7.94995117 71.24291992 C8.93995117 71.24291992 9.92995117 71.24291992 10.94995117 71.24291992 C10.94995117 71.90291992 10.94995117 72.56291992 10.94995117 73.24291992 C15.77776599 71.05142609 15.77776599 71.05142609 19.01245117 67.18041992 C19.10979168 64.91112979 19.10979168 64.91112979 16.94995117 62.24291992 C15.95995117 62.24291992 14.96995117 62.24291992 13.94995117 62.24291992 C13.94995117 61.25291992 13.94995117 60.26291992 13.94995117 59.24291992 C13.28995117 59.24291992 12.62995117 59.24291992 11.94995117 59.24291992 C9.33786808 57.36222009 8.95526612 56.26756197 8.26245117 53.05541992 C8.15932617 52.12729492 8.05620117 51.19916992 7.94995117 50.24291992 C8.56483398 50.32670898 9.1797168 50.41049805 9.81323242 50.49682617 C10.62147461 50.59866211 11.4297168 50.70049805 12.26245117 50.80541992 C13.06295898 50.90983398 13.8634668 51.01424805 14.68823242 51.12182617 C17.11812233 51.39047171 17.11812233 51.39047171 19.94995117 50.24291992 C20.27995117 50.57291992 20.60995117 50.90291992 20.94995117 51.24291992 C23.90812224 51.49297378 23.90812224 51.49297378 26.94995117 51.24291992 C27.93995117 50.25291992 27.93995117 50.25291992 28.94995117 49.24291992 C30.26995117 49.90291992 31.58995117 50.56291992 32.94995117 51.24291992 C33.93995117 50.58291992 34.92995117 49.92291992 35.94995117 49.24291992 C35.97057617 49.94416992 35.99120117 50.64541992 36.01245117 51.36791992 C37.6546727 56.40406593 42.20704259 58.99160094 46.38745117 61.99291992 C47.16088867 62.61166992 47.16088867 62.61166992 47.94995117 63.24291992 C47.94995117 63.90291992 47.94995117 64.56291992 47.94995117 65.24291992 C48.93995117 64.91291992 49.92995117 64.58291992 50.94995117 64.24291992 C50.28995117 66.22291992 49.62995117 68.20291992 48.94995117 70.24291992 C49.60995117 70.24291992 50.26995117 70.24291992 50.94995117 70.24291992 C50.94995117 70.90291992 50.94995117 71.56291992 50.94995117 72.24291992 C50.29768555 72.28030273 49.64541992 72.31768555 48.97338867 72.35620117 C43.59138388 72.76104224 39.70846756 73.506773 34.94995117 76.24291992 C34.28995117 76.24291992 33.62995117 76.24291992 32.94995117 76.24291992 C34.43495117 78.22291992 34.43495117 78.22291992 35.94995117 80.24291992 C34.28383212 80.28564092 32.61612232 80.28355824 30.94995117 80.24291992 C30.61995117 79.91291992 30.28995117 79.58291992 29.94995117 79.24291992 C29.28995117 79.90291992 28.62995117 80.56291992 27.94995117 81.24291992 C26.63873647 81.99140498 25.30234559 82.69669475 23.94995117 83.36791992 C23.24870117 83.72112305 22.54745117 84.07432617 21.82495117 84.43823242 C19.94995117 85.24291992 19.94995117 85.24291992 17.94995117 85.24291992 C18.60995117 86.56291992 19.26995117 87.88291992 19.94995117 89.24291992 C19.3853418 88.86393555 18.82073242 88.48495117 18.23901367 88.09448242 C15.94474028 86.95129981 15.94474028 86.95129981 13.66088867 88.14135742 C12.8900293 88.62862305 12.11916992 89.11588867 11.32495117 89.61791992 C7.09968379 92.24291992 7.09968379 92.24291992 4.94995117 92.24291992 C4.94995117 93.89291992 4.94995117 95.54291992 4.94995117 97.24291992 C4.26932617 96.99541992 3.58870117 96.74791992 2.88745117 96.49291992 C-1.30233936 96.136342 -3.70277481 97.86502972 -7.05004883 100.24291992 C-8.86559042 101.80394483 -8.86559042 101.80394483 -10.05004883 103.24291992 C-11.58875499 104.78162609 -13.43714326 105.1263256 -15.48754883 105.80541992 C-16.29063477 106.07483398 -17.0937207 106.34424805 -17.92114258 106.62182617 C-20.05004883 107.24291992 -20.05004883 107.24291992 -22.05004883 107.24291992 C-22.54504883 109.22291992 -22.54504883 109.22291992 -23.05004883 111.24291992 C-24.04004883 110.74791992 -24.04004883 110.74791992 -25.05004883 110.24291992 C-26.77687463 111.01211972 -26.77687463 111.01211972 -28.55004883 112.18041992 C-31.85004883 114.24291992 -31.85004883 114.24291992 -34.05004883 114.24291992 C-33.55504883 121.17291992 -33.55504883 121.17291992 -33.05004883 128.24291992 C-28.23802176 128.24291992 -26.82580451 127.79095213 -22.91918945 125.38793945 C-21.04561432 124.24020338 -19.14261284 123.21561158 -17.19067383 122.20776367 C-16.55000977 121.87325195 -15.9093457 121.53874023 -15.24926758 121.1940918 C-13.93588636 120.51108092 -12.62073795 119.83145885 -11.30395508 119.1550293 C-8.08173102 117.46548585 -5.58035831 115.82412643 -3.05004883 113.24291992 C-0.67504883 112.11010742 -0.67504883 112.11010742 1.94995117 111.11791992 C2.81620117 110.7853418 3.68245117 110.45276367 4.57495117 110.11010742 C6.35659407 109.45957334 8.15058978 108.84270705 9.94995117 108.24291992 C9.94995117 107.58291992 9.94995117 106.92291992 9.94995117 106.24291992 C12.07324635 105.14195205 14.13306578 104.17718647 16.38745117 103.36791992 C19.03548971 102.35343874 19.03548971 102.35343874 21.13745117 100.36791992 C24.48419258 97.83927086 27.79059848 96.69523627 31.74291992 95.36791992 C34.35921293 94.03430508 34.94145727 92.94726112 35.94995117 90.24291992 C36.35213867 90.98026367 36.75432617 91.71760742 37.16870117 92.47729492 C39.01106922 95.33781373 40.89464415 97.26128512 43.44995117 99.49291992 C44.22338867 100.17870117 44.99682617 100.86448242 45.79370117 101.57104492 C47.9350535 103.42206451 47.9350535 103.42206451 50.94995117 104.24291992 C52.94995117 107.24291992 52.94995117 107.24291992 52.94995117 110.24291992 C47.99995117 112.71791992 47.99995117 112.71791992 42.94995117 115.24291992 C43.27995117 115.90291992 43.60995117 116.56291992 43.94995117 117.24291992 C39.55185191 120.25875942 39.55185191 120.25875942 36.57495117 120.18041992 C33.42218442 120.2554858 31.82581483 121.13792669 29.13745117 122.74291992 C27.9521582 123.43901367 27.9521582 123.43901367 26.74291992 124.14916992 C26.15124023 124.51010742 25.55956055 124.87104492 24.94995117 125.24291992 C24.94995117 126.56291992 24.94995117 127.88291992 24.94995117 129.24291992 C23.9831543 129.14366211 23.01635742 129.0444043 22.02026367 128.94213867 C16.88445354 128.94601573 13.12784144 131.49009811 8.82495117 134.05541992 C7.64739258 134.73314453 7.64739258 134.73314453 6.44604492 135.42456055 C4.27058827 136.68104268 2.1091629 137.95879079 -0.05004883 139.24291992 C-1.0168457 139.80366211 -1.98364258 140.3644043 -2.97973633 140.94213867 C-5.16105474 142.20556002 -5.16105474 142.20556002 -7.05004883 144.24291992 C-8.71671549 144.90958659 -10.38338216 145.57625326 -12.05004883 146.24291992 C-15.82208937 148.13706959 -18.64818166 149.64011917 -21.05004883 153.24291992 C-23.03650659 153.64924083 -25.04058661 153.97241539 -27.05004883 154.24291992 C-29.05750841 154.88677586 -31.05883723 155.5504455 -33.05004883 156.24291992 C-32.90865402 158.49320321 -32.76176879 160.74314199 -32.61254883 162.99291992 C-32.53133789 164.24588867 -32.45012695 165.49885742 -32.36645508 166.78979492 C-32.1248936 169.42609545 -31.80720948 171.72329287 -31.05004883 174.24291992 C-31.71004883 174.24291992 -32.37004883 174.24291992 -33.05004883 174.24291992 C-33.05004883 173.58291992 -33.05004883 172.92291992 -33.05004883 172.24291992 C-33.77192383 172.11916992 -34.49379883 171.99541992 -35.23754883 171.86791992 C-41.0943883 170.56640004 -43.8999991 168.58599522 -48.05004883 164.24291992 C-49.41823453 163.06826933 -50.79368931 161.90204976 -52.17504883 160.74291992 C-55.19165126 158.13305041 -57.17822646 155.79938241 -59.05004883 152.24291992 C-60.13286133 150.91260742 -60.13286133 150.91260742 -61.23754883 149.55541992 C-63.05004883 147.24291992 -63.05004883 147.24291992 -63.05004883 145.24291992 C-63.71004883 145.24291992 -64.37004883 145.24291992 -65.05004883 145.24291992 C-65.05004883 144.58291992 -65.05004883 143.92291992 -65.05004883 143.24291992 C-65.71004883 143.24291992 -66.37004883 143.24291992 -67.05004883 143.24291992 C-67.34008789 142.41147461 -67.34008789 142.41147461 -67.63598633 141.56323242 C-68.02657227 140.47655273 -68.02657227 140.47655273 -68.42504883 139.36791992 C-68.6802832 138.64862305 -68.93551758 137.92932617 -69.19848633 137.18823242 C-69.98882666 135.06133998 -69.98882666 135.06133998 -72.05004883 133.24291992 C-74.24467625 129.75733519 -74.51754619 126.27472564 -75.05004883 122.24291992 C-75.38004883 121.91291992 -75.71004883 121.58291992 -76.05004883 121.24291992 C-80.21444434 102.87422487 -79.29452249 84.70177008 -76.05004883 66.24291992 C-75.39004883 66.24291992 -74.73004883 66.24291992 -74.05004883 66.24291992 C-73.94692383 65.23229492 -73.84379883 64.22166992 -73.73754883 63.18041992 C-73.02883639 59.12143051 -71.77546956 55.96982871 -70.05004883 52.24291992 C-69.69942383 51.29416992 -69.34879883 50.34541992 -68.98754883 49.36791992 C-68.05004883 47.24291992 -68.05004883 47.24291992 -66.05004883 46.24291992 C-65.36518158 44.91884324 -64.7013468 43.58382751 -64.05004883 42.24291992 C-63.05004883 40.90958659 -62.05004883 39.57625326 -61.05004883 38.24291992 C-60.78192383 37.60354492 -60.51379883 36.96416992 -60.23754883 36.30541992 C-58.79577499 33.80128641 -56.87323036 32.31118114 -54.63208008 30.52807617 C-50.56038918 27.22045567 -47.27276836 23.35466553 -44.05004883 19.24291992 C-42.05004883 17.24291992 -42.05004883 17.24291992 -39.48754883 16.24291992 C-36.90163442 15.49421878 -36.90163442 15.49421878 -36.05004883 13.24291992 C-34.23754883 12.68041992 -34.23754883 12.68041992 -32.05004883 12.24291992 C-30.93629883 11.96448242 -30.93629883 11.96448242 -29.80004883 11.68041992 C-29.22254883 11.53604492 -28.64504883 11.39166992 -28.05004883 11.24291992 C-28.05004883 10.58291992 -28.05004883 9.92291992 -28.05004883 9.24291992 C-27.30239258 8.97737305 -26.55473633 8.71182617 -25.78442383 8.43823242 C-24.79958008 8.0850293 -23.81473633 7.73182617 -22.80004883 7.36791992 C-21.33825195 6.84584961 -21.33825195 6.84584961 -19.84692383 6.31323242 C-17.12277396 5.33329477 -17.12277396 5.33329477 -14.94848633 4.14135742 C-12.85738194 3.15174012 -11.22146179 2.91755209 -8.92504883 2.74291992 C-4.7122689 2.19933542 -4.01055939 0.3194194 0 0 Z M2.94995117 93.24291992 C2.61995117 93.90291992 2.28995117 94.56291992 1.94995117 95.24291992 C2.60995117 95.24291992 3.26995117 95.24291992 3.94995117 95.24291992 C3.61995117 94.58291992 3.28995117 93.92291992 2.94995117 93.24291992 Z M39.94995117 116.24291992 C39.61995117 116.90291992 39.28995117 117.56291992 38.94995117 118.24291992 C39.60995117 118.24291992 40.26995117 118.24291992 40.94995117 118.24291992 C40.61995117 117.58291992 40.28995117 116.92291992 39.94995117 116.24291992 Z M14.94995117 147.24291992 C15.94995117 149.24291992 15.94995117 149.24291992 15.94995117 149.24291992 Z M-22.05004883 150.24291992 C-21.05004883 152.24291992 -21.05004883 152.24291992 -21.05004883 152.24291992 Z " fill="#F8F8F8" transform="translate(95.050048828125,19.757080078125)"/>
<path d="M0 0 C0.763125 0.37125 1.52625 0.7425 2.3125 1.125 C3.6428125 1.558125 3.6428125 1.558125 5 2 C5.99 1.34 6.98 0.68 8 0 C8.12375 0.763125 8.2475 1.52625 8.375 2.3125 C8.88102792 5.20267136 8.88102792 5.20267136 11 8 C6.22914467 7.07233369 6.22914467 7.07233369 4.3046875 6.46484375 C1.00055495 5.79841702 -2.27195953 5.93576551 -5.625 6 C-12.73083942 6.13458029 -12.73083942 6.13458029 -15 5 C-15 5.99 -15 6.98 -15 8 C-14.01 8.33 -13.02 8.66 -12 9 C-12 10.65 -12 12.3 -12 14 C-12.66 13.67 -13.32 13.34 -14 13 C-14 12.01 -14 11.02 -14 10 C-14.66 10 -15.32 10 -16 10 C-18.6120831 8.11930017 -18.99468505 7.02464205 -19.6875 3.8125 C-19.790625 2.884375 -19.89375 1.95625 -20 1 C-19.38511719 1.08378906 -18.77023438 1.16757813 -18.13671875 1.25390625 C-16.92435547 1.40666016 -16.92435547 1.40666016 -15.6875 1.5625 C-14.88699219 1.66691406 -14.08648437 1.77132812 -13.26171875 1.87890625 C-10.83182884 2.14755178 -10.83182884 2.14755178 -8 1 C-7.67 1.33 -7.34 1.66 -7 2 C-5.00041636 2.04080783 -2.99954746 2.04254356 -1 2 C-0.67 1.34 -0.34 0.68 0 0 Z " fill="#D8D7D8" transform="translate(123,69)"/>
<path d="M0 0 C0.99 0.495 0.99 0.495 2 1 C2.87384717 3.66315329 3.64899474 6.29658941 4.375 9 C5.75284605 13.94170282 7.13600201 18.71218224 9.3125 23.375 C11 27 11 27 11 30 C11.66 30 12.32 30 13 30 C17 36.75 17 36.75 17 39 C17.66 39 18.32 39 19 39 C19.33 40.65 19.66 42.3 20 44 C15.125 39.375 15.125 39.375 14 36 C13.34 36 12.68 36 12 36 C12 35.34 12 34.68 12 34 C11.34 34 10.68 34 10 34 C9.80664062 33.44570312 9.61328125 32.89140625 9.4140625 32.3203125 C9.15367188 31.59585938 8.89328125 30.87140625 8.625 30.125 C8.36976562 29.40570313 8.11453125 28.68640625 7.8515625 27.9453125 C7.06122217 25.81842006 7.06122217 25.81842006 5 24 C2.80537258 20.51441527 2.53250264 17.03180571 2 13 C1.67 12.67 1.34 12.34 1 12 C0.76572222 9.98405418 0.58663876 7.961526 0.4375 5.9375 C0.35371094 4.83277344 0.26992188 3.72804687 0.18359375 2.58984375 C0.09271484 1.30787109 0.09271484 1.30787109 0 0 Z " fill="#7F7F7F" transform="translate(18,129)"/>
<path d="M0 0 C0.87914062 0.00451172 1.75828125 0.00902344 2.6640625 0.01367188 C4.81773803 0.02537663 6.97137817 0.04330931 9.125 0.0625 C9.455 1.3825 9.785 2.7025 10.125 4.0625 C11.445 4.3925 12.765 4.7225 14.125 5.0625 C14.125 6.0525 14.125 7.0425 14.125 8.0625 C13.135 7.4025 12.145 6.7425 11.125 6.0625 C9.12547242 6.01903201 7.12460012 6.022508 5.125 6.0625 C3.45833333 5.72916667 1.79166667 5.39583333 0.125 5.0625 C-0.926875 5.10375 -1.97875 5.145 -3.0625 5.1875 C-3.990625 5.14625 -4.91875 5.105 -5.875 5.0625 C-6.535 4.0725 -7.195 3.0825 -7.875 2.0625 C-7.875 3.0525 -7.875 4.0425 -7.875 5.0625 C-10.515 4.7325 -13.155 4.4025 -15.875 4.0625 C-15.875 3.0725 -15.875 2.0825 -15.875 1.0625 C-10.54632017 -0.04691367 -5.41218145 -0.05298069 0 0 Z " fill="#D0CFCF" transform="translate(128.875,54.9375)"/>
<path d="M0 0 C1.30384644 -0.00290039 1.30384644 -0.00290039 2.6340332 -0.00585938 C3.55015381 -0.00134766 4.46627441 0.00316406 5.41015625 0.0078125 C6.81237427 0.01071289 6.81237427 0.01071289 8.24291992 0.01367188 C15.36021857 0.05785964 22.39015903 0.39696863 29.47265625 1.1328125 C29.47265625 1.7928125 29.47265625 2.4528125 29.47265625 3.1328125 C28.52390625 3.0915625 27.57515625 3.0503125 26.59765625 3.0078125 C23.37020769 2.78307432 23.37020769 2.78307432 21.47265625 5.1328125 C18.40675653 6.25697573 16.55604814 6.06717368 13.47265625 5.1328125 C9.33326602 4.04941486 9.33326602 4.04941486 5.47265625 5.1328125 C3.79610896 4.85338795 2.12657471 4.52453003 0.47265625 4.1328125 C0.47265625 3.4728125 0.47265625 2.8128125 0.47265625 2.1328125 C-0.18734375 2.1328125 -0.84734375 2.1328125 -1.52734375 2.1328125 C-1.52734375 2.7928125 -1.52734375 3.4528125 -1.52734375 4.1328125 C-3.90234375 4.3203125 -3.90234375 4.3203125 -6.52734375 4.1328125 C-7.18734375 3.1428125 -7.84734375 2.1528125 -8.52734375 1.1328125 C-5.61587074 0.29907062 -3.02480068 0.00439606 0 0 Z " fill="#BBBABB" transform="translate(81.52734375,54.8671875)"/>
<path d="M0 0 C1.98 0.66 3.96 1.32 6 2 C6 2.66 6 3.32 6 4 C6.556875 4.226875 7.11375 4.45375 7.6875 4.6875 C10.63246684 6.35896766 12.68156544 8.55276352 15 11 C11.20307814 13.82561627 8.81430721 15.56638908 4 15 C4.474375 14.608125 4.94875 14.21625 5.4375 13.8125 C7.35179633 11.59191626 7.61266988 9.86624291 8 7 C5.50935112 6.31292445 3.62113708 6 1 6 C0.67 4.02 0.34 2.04 0 0 Z " fill="#B1B0B0" transform="translate(163,78)"/>
<path d="M0 0 C0.66 0.33 1.32 0.66 2 1 C1.01 1.33 0.02 1.66 -1 2 C-1.33 2.99 -1.66 3.98 -2 5 C-4.84375 6.4296875 -4.84375 6.4296875 -8.5 7.875 C-18.58531491 11.25755215 -18.58531491 11.25755215 -26 18 C-26.99 17.67 -27.98 17.34 -29 17 C-28.34 16.67 -27.68 16.34 -27 16 C-27 15.34 -27 14.68 -27 14 C-25.6875 12.375 -25.6875 12.375 -24 11 C-23.01 11 -22.02 11 -21 11 C-21.66 10.34 -22.32 9.68 -23 9 C-21.783125 8.896875 -20.56625 8.79375 -19.3125 8.6875 C-15.55310735 8.23584152 -13.18178586 7.09088785 -10 5 C-9.01 5 -8.02 5 -7 5 C-6.67 4.34 -6.34 3.68 -6 3 C-3.0625 1.3125 -3.0625 1.3125 0 0 Z " fill="#5E5E5E" transform="translate(162,140)"/>
<path d="M0 0 C10.56 0 21.12 0 32 0 C31.67 0.99 31.34 1.98 31 3 C31 2.34 31 1.68 31 1 C30.38125 1.165 29.7625 1.33 29.125 1.5 C24.74529271 2.20075317 20.42571011 2.07734251 16 2 C16 2.66 16 3.32 16 4 C12.66666667 4 9.33333333 4 6 4 C6 3.34 6 2.68 6 2 C3.03 1.505 3.03 1.505 0 1 C0 0.67 0 0.34 0 0 Z " fill="#A8A7A8" transform="translate(98,206)"/>
<path d="M0 0 C1.51013672 -0.00580078 1.51013672 -0.00580078 3.05078125 -0.01171875 C8.30883882 -0.00482746 13.32016683 0.20834413 18.5 1.125 C18.5 1.455 18.5 1.785 18.5 2.125 C13.8739666 2.31768792 9.24768184 2.49634034 4.62060547 2.66210938 C3.04721619 2.72044307 1.47396318 2.78258355 -0.09912109 2.84863281 C-2.36270329 2.94300832 -4.62642535 3.02360024 -6.890625 3.1015625 C-7.94240936 3.14985703 -7.94240936 3.14985703 -9.01544189 3.1991272 C-12.71574677 3.31215539 -15.36148886 3.186847 -18.5 1.125 C-12.31691979 0.03080322 -6.26907488 -0.02408095 0 0 Z " fill="#6B6B6B" transform="translate(113.5,19.875)"/>
<path d="M0 0 C0.33 0 0.66 0 1 0 C1.33 4.62 1.66 9.24 2 14 C6.94732628 14.07526305 6.94732628 14.07526305 10.8125 12 C12.3903125 11.01 12.3903125 11.01 14 10 C14 11.32 14 12.64 14 14 C10.91190305 15.76462683 9.76687864 16 6 16 C5.67 16.99 5.34 17.98 5 19 C3.35 19.66 1.7 20.32 0 21 C0 14.07 0 7.14 0 0 Z " fill="#C2C2C3" transform="translate(60,134)"/>
<path d="M0 0 C0.86625 0.7115625 0.86625 0.7115625 1.75 1.4375 C3.92582084 2.9484867 5.42602448 3.54036151 8 4 C7.7525 4.639375 7.505 5.27875 7.25 5.9375 C6.9194095 9.98723368 8.31421201 12.43035983 10.08984375 16.01171875 C11 18 11 18 11 20 C11.66 20.33 12.32 20.66 13 21 C13.625 24.0625 13.625 24.0625 14 27 C13.34 27 12.68 27 12 27 C11.55269531 25.9378125 11.10539063 24.875625 10.64453125 23.78125 C6.87142697 14.71993104 6.87142697 14.71993104 2.0625 6.1875 C0 3 0 3 0 0 Z " fill="#979797" transform="translate(195,60)"/>
<path d="M0 0 C0.66 0 1.32 0 2 0 C2.06058594 0.96421875 2.12117188 1.9284375 2.18359375 2.921875 C2.30927734 4.81679687 2.30927734 4.81679687 2.4375 6.75 C2.55931641 8.62945312 2.55931641 8.62945312 2.68359375 10.546875 C2.92515522 13.18317553 3.24283934 15.48037294 4 18 C3.34 18 2.68 18 2 18 C2 17.34 2 16.68 2 16 C1.278125 15.87625 0.55625 15.7525 -0.1875 15.625 C-5.94271191 14.34606402 -9.01591935 12.42675628 -13 8 C-13.33 7.34 -13.66 6.68 -14 6 C-8.39341182 7.20926412 -5.97867364 8.68977022 -2 13 C-1.01 13.33 -0.02 13.66 1 14 C0.67 9.38 0.34 4.76 0 0 Z " fill="#B8B7B8" transform="translate(60,176)"/>
<path d="M0 0 C4.00538721 1.38537586 6.85703014 3.25416695 10.125 5.9375 C10.97320312 6.62714844 11.82140625 7.31679687 12.6953125 8.02734375 C14.55704338 9.62085917 16.30525837 11.23325954 18 13 C17.67 13.99 17.34 14.98 17 16 C14.9375 16.6875 14.9375 16.6875 13 17 C12.67 16.01 12.34 15.02 12 14 C12.33 13.67 12.66 13.34 13 13 C9.82679218 9.46413986 7.83256305 7.41421969 3 7 C3 5.68 3 4.36 3 3 C1.5833253 1.2488427 1.5833253 1.2488427 0 0 Z " fill="#797979" transform="translate(160,118)"/>
<path d="M0 0 C0.763125 0.37125 1.52625 0.7425 2.3125 1.125 C3.6428125 1.558125 3.6428125 1.558125 5 2 C5.99 1.34 6.98 0.68 8 0 C7.67 1.65 7.34 3.3 7 5 C-5.87 4.505 -5.87 4.505 -19 4 C-19.33 3.01 -19.66 2.02 -20 1 C-19.38511719 1.08378906 -18.77023438 1.16757813 -18.13671875 1.25390625 C-16.92435547 1.40666016 -16.92435547 1.40666016 -15.6875 1.5625 C-14.88699219 1.66691406 -14.08648437 1.77132812 -13.26171875 1.87890625 C-10.83182884 2.14755178 -10.83182884 2.14755178 -8 1 C-7.67 1.33 -7.34 1.66 -7 2 C-5.00041636 2.04080783 -2.99954746 2.04254356 -1 2 C-0.67 1.34 -0.34 0.68 0 0 Z " fill="#636363" transform="translate(123,69)"/>
<path d="M0 0 C0.33 0 0.66 0 1 0 C1.02953103 3.60414885 1.04697407 7.20826576 1.0625 10.8125 C1.07087891 11.81732422 1.07925781 12.82214844 1.08789062 13.85742188 C1.10966319 20.62868824 0.7369831 27.26910926 0 34 C-1.98351941 30.70366503 -2.19713119 28.38441849 -2.01171875 24.5703125 C-1.96466797 23.52746094 -1.91761719 22.48460937 -1.86914062 21.41015625 C-1.80919922 20.32605469 -1.74925781 19.24195312 -1.6875 18.125 C-1.63916016 17.04863281 -1.59082031 15.97226563 -1.54101562 14.86328125 C-1.29655635 9.84413005 -1.00616882 4.93624702 0 0 Z " fill="#575857" transform="translate(18,94)"/>
<path d="M0 0 C1.19882813 0.07250977 1.19882813 0.07250977 2.421875 0.14648438 C3.246875 0.20255859 4.071875 0.25863281 4.921875 0.31640625 C5.76234375 0.36861328 6.6028125 0.42082031 7.46875 0.47460938 C9.5368102 0.60386314 11.6043972 0.74064899 13.671875 0.87890625 C13.671875 1.53890625 13.671875 2.19890625 13.671875 2.87890625 C12.723125 2.83765625 11.774375 2.79640625 10.796875 2.75390625 C7.56942644 2.52916807 7.56942644 2.52916807 5.671875 4.87890625 C3.046875 4.50390625 3.046875 4.50390625 0.671875 3.87890625 C0.671875 3.21890625 0.671875 2.55890625 0.671875 1.87890625 C0.011875 1.87890625 -0.648125 1.87890625 -1.328125 1.87890625 C-1.328125 2.53890625 -1.328125 3.19890625 -1.328125 3.87890625 C-3.703125 4.06640625 -3.703125 4.06640625 -6.328125 3.87890625 C-6.988125 2.88890625 -7.648125 1.89890625 -8.328125 0.87890625 C-5.42143038 0.02585457 -3.01763627 -0.1939909 0 0 Z " fill="#999898" transform="translate(81.328125,55.12109375)"/>
<path d="M0 0 C0.90105469 0.00902344 1.80210938 0.01804688 2.73046875 0.02734375 C3.41753906 0.03894531 4.10460937 0.05054688 4.8125 0.0625 C3.4925 0.3925 2.1725 0.7225 0.8125 1.0625 C0.8125 1.7225 0.8125 2.3825 0.8125 3.0625 C1.4725 3.0625 2.1325 3.0625 2.8125 3.0625 C2.8125 3.7225 2.8125 4.3825 2.8125 5.0625 C0.5025 5.3925 -1.8075 5.7225 -4.1875 6.0625 C-4.1875 5.4025 -4.1875 4.7425 -4.1875 4.0625 C-5.5075 3.7325 -6.8275 3.4025 -8.1875 3.0625 C-8.1875 2.4025 -8.1875 1.7425 -8.1875 1.0625 C-5.17259443 0.05753148 -3.14568308 -0.04085303 0 0 Z " fill="#D0D0D0" transform="translate(72.1875,54.9375)"/>
<path d="M0 0 C0.99 0.33 1.98 0.66 3 1 C0.59173919 3.60894921 -1.94841147 5.73812131 -4.8125 7.8125 C-8.94466697 10.84378947 -12.48239384 14.28452849 -16 18 C-16.66 17.67 -17.32 17.34 -18 17 C-17.278125 16.29875 -16.55625 15.5975 -15.8125 14.875 C-13.00145957 12.07194548 -10.52035313 9.06529435 -8 6 C-6 4 -6 4 -3.4375 3 C-0.85158559 2.25129886 -0.85158559 2.25129886 0 0 Z " fill="#3D3D3D" transform="translate(59,33)"/>
<path d="M0 0 C-0.33 0.99 -0.66 1.98 -1 3 C-2.91814673 3.76064439 -4.84213582 4.51092002 -6.796875 5.171875 C-8.98688398 5.99506987 -10.8687408 6.99048821 -12.875 8.1875 C-16 10 -16 10 -18 10 C-17.67 9.01 -17.34 8.02 -17 7 C-13.9375 5.8125 -13.9375 5.8125 -11 5 C-11 4.01 -11 3.02 -11 2 C-7.12315913 0.80712589 -4.08378077 0 0 0 Z " fill="#7B7B7B" transform="translate(133,157)"/>
<path d="M0 0 C3.28426103 1.05565533 4.57151556 2.61660352 6.25 5.5 C8 9 8 9 8 11 C8.66 11 9.32 11 10 11 C10.33 12.65 10.66 14.3 11 16 C6.125 11.375 6.125 11.375 5 8 C4.34 8 3.68 8 3 8 C3 7.34 3 6.68 3 6 C2.34 6 1.68 6 1 6 C0.67 4.02 0.34 2.04 0 0 Z " fill="#818080" transform="translate(27,157)"/>
<path d="M0 0 C0.66 0.99 1.32 1.98 2 3 C-0.97565276 6.37240647 -3.49997189 7.83332396 -7.75 9.25 C-8.73484375 9.58515625 -9.7196875 9.9203125 -10.734375 10.265625 C-11.48203125 10.50796875 -12.2296875 10.7503125 -13 11 C-13 10.34 -13 9.68 -13 9 C-12.34 9 -11.68 9 -11 9 C-11 8.01 -11 7.02 -11 6 C-9.01432292 5.51171875 -7.02864583 5.0234375 -5.04296875 4.53515625 C-3.34316798 4.08989295 -1.66698046 3.55566015 0 3 C0 2.01 0 1.02 0 0 Z " fill="#7B7B7B" transform="translate(109,167)"/>
<path d="M0 0 C0.99 0.33 1.98 0.66 3 1 C2.67 1.99 2.34 2.98 2 4 C-0.43578787 4.53030068 -2.87305975 5.04952312 -5.3125 5.5625 C-6.00279297 5.71396484 -6.69308594 5.86542969 -7.40429688 6.02148438 C-10.75544066 6.71761569 -12.69534072 7.10155309 -16 6 C-12.55780324 4.02073686 -9.67524716 2.82429443 -5.75 2.4375 C-1.9767105 2.39031255 -1.9767105 2.39031255 0 0 Z " fill="#717171" transform="translate(92,20)"/>
<path d="M0 0 C0 0.66 0 1.32 0 2 C-2.97 1.505 -2.97 1.505 -6 1 C-6 1.99 -6 2.98 -6 4 C-8.64 3.67 -11.28 3.34 -14 3 C-14 2.01 -14 1.02 -14 0 C-8.97703996 -1.13016601 -5.02125926 -0.77916092 0 0 Z " fill="#9C9B9B" transform="translate(127,56)"/>
<path d="M0 0 C0.33 0.66 0.66 1.32 1 2 C0.0625 4.125 0.0625 4.125 -1 6 C-0.34 6 0.32 6 1 6 C1 6.66 1 7.32 1 8 C-5.0546875 8.9765625 -5.0546875 8.9765625 -7 9 C-7.66 8.34 -8.32 7.68 -9 7 C-8.67 6.34 -8.34 5.68 -8 5 C-4.9375 4.375 -4.9375 4.375 -2 4 C-2 3.01 -2 2.02 -2 1 C-1.34 0.67 -0.68 0.34 0 0 Z " fill="#B2B2B2" transform="translate(145,84)"/>
<path d="M0 0 C6.93 0 13.86 0 21 0 C21 0.33 21 0.66 21 1 C19.02 1 17.04 1 15 1 C15 2.32 15 3.64 15 5 C12.69 4.67 10.38 4.34 8 4 C8 3.67 8 3.34 8 3 C9.65 3 11.3 3 13 3 C13 2.34 13 1.68 13 1 C8.71 1 4.42 1 0 1 C0 0.67 0 0.34 0 0 Z " fill="#DFDEDE" transform="translate(98,55)"/>
<path d="M0 0 C0.66 0.33 1.32 0.66 2 1 C0.7934375 1.4021875 0.7934375 1.4021875 -0.4375 1.8125 C-1.283125 2.204375 -2.12875 2.59625 -3 3 C-3.33 3.99 -3.66 4.98 -4 6 C-5.77734375 6.984375 -5.77734375 6.984375 -7.9375 7.75 C-8.64777344 8.01296875 -9.35804687 8.2759375 -10.08984375 8.546875 C-12 9 -12 9 -14 8 C-8.375 3 -8.375 3 -5 3 C-4.154375 2.484375 -3.30875 1.96875 -2.4375 1.4375 C-1.2309375 0.7259375 -1.2309375 0.7259375 0 0 Z " fill="#6C6C6B" transform="translate(91,179)"/>
<path d="M0 0 C3.19902639 -0.08886184 5.92677456 0.08941469 9 1 C9 1.66 9 2.32 9 3 C10.98 3 12.96 3 15 3 C15.33 3.66 15.66 4.32 16 5 C9.79029227 5.33266291 5.71735105 4.45029331 0 2 C0 1.34 0 0.68 0 0 Z " fill="#838282" transform="translate(133,21)"/>
<path d="M0 0 C1.67588141 2.51382212 2.94030311 4.82947288 4.1875 7.5625 C4.55230469 8.34753906 4.91710937 9.13257813 5.29296875 9.94140625 C5.52628906 10.62074219 5.75960938 11.30007812 6 12 C5.67 12.66 5.34 13.32 5 14 C0.17970402 10.26427061 0.17970402 10.26427061 -0.33203125 6.6640625 C-0.31436669 4.4241967 -0.21850902 2.22879201 0 0 Z " fill="#909090" transform="translate(23,144)"/>
<path d="M0 0 C0 0.66 0 1.32 0 2 C-1.32 2 -2.64 2 -4 2 C-4 2.66 -4 3.32 -4 4 C-5.28788008 4.53012738 -6.58046678 5.0488329 -7.875 5.5625 C-8.95394531 5.99755859 -8.95394531 5.99755859 -10.0546875 6.44140625 C-12 7 -12 7 -14 6 C-12.35 5.34 -10.7 4.68 -9 4 C-9 3.34 -9 2.68 -9 2 C-3.375 0 -3.375 0 0 0 Z " fill="#696969" transform="translate(76,27)"/>
<path d="M0 0 C1.485 0.99 1.485 0.99 3 2 C3.99 2 4.98 2 6 2 C5.67 2.99 5.34 3.98 5 5 C5.66 5 6.32 5 7 5 C7.66 6.32 8.32 7.64 9 9 C4.74822077 8.52758009 2.70030797 6.15035929 0 3 C0 2.01 0 1.02 0 0 Z " fill="#9E9E9E" transform="translate(91,80)"/>
<path d="M0 0 C5.51175932 1.18881083 8.23216888 2.5672575 12 7 C12.33 7.66 12.66 8.32 13 9 C7.48824068 7.81118917 4.76783112 6.4327425 1 2 C0.67 1.34 0.34 0.68 0 0 Z " fill="#7A7A7A" transform="translate(46,182)"/>
<path d="M0 0 C6.78571429 2.67857143 6.78571429 2.67857143 9 6 C9 6.99 9 7.98 9 9 C7 9 7 9 4.5 6.75 C2.43045772 4.4735035 1.14250707 2.80433554 0 0 Z " fill="#9E9E9E" transform="translate(139,121)"/>
<path d="M0 0 C0 0.99 0 1.98 0 3 C-0.66 3.66 -1.32 4.32 -2 5 C-2.28875 5.825 -2.5775 6.65 -2.875 7.5 C-4 10 -4 10 -6.125 11.3125 C-7.053125 11.6528125 -7.053125 11.6528125 -8 12 C-4.5 3 -4.5 3 0 0 Z " fill="#505051" transform="translate(40,51)"/>
<path d="M0 0 C0.66 0.33 1.32 0.66 2 1 C1.67 2.98 1.34 4.96 1 7 C0.01 7.33 -0.98 7.66 -2 8 C-2.33 8.99 -2.66 9.98 -3 11 C-3.66 10.34 -4.32 9.68 -5 9 C-3.25 5.125 -3.25 5.125 -1 4 C-0.34786708 1.97536745 -0.34786708 1.97536745 0 0 Z " fill="#777675" transform="translate(30,62)"/>
<path d="M0 0 C0.33 1.32 0.66 2.64 1 4 C-0.64666203 3.8864371 -2.29236082 3.75882619 -3.9375 3.625 C-4.85402344 3.55539063 -5.77054688 3.48578125 -6.71484375 3.4140625 C-7.84599609 3.20910156 -7.84599609 3.20910156 -9 3 C-9.33 2.34 -9.66 1.68 -10 1 C-6.52674819 -0.1577506 -3.63932552 -0.06866652 0 0 Z " fill="#AAA8A9" transform="translate(138,55)"/>
<path d="M0 0 C0.66 0.33 1.32 0.66 2 1 C1 4 1 4 -0.77734375 4.984375 C-1.84662109 5.36335937 -1.84662109 5.36335937 -2.9375 5.75 C-4.00291016 6.14445313 -4.00291016 6.14445313 -5.08984375 6.546875 C-7 7 -7 7 -9 6 C-6.03 4.02 -3.06 2.04 0 0 Z " fill="#7A7A7A" transform="translate(73,144)"/>
<path d="M0 0 C0.33 0 0.66 0 1 0 C0.67 5.61 0.34 11.22 0 17 C-2.12906048 12.74187903 -2.47685877 9.63103229 -2 5 C-1 2 -1 2 0 0 Z " fill="#626161" transform="translate(18,111)"/>
<path d="M0 0 C1.1446875 0.556875 1.1446875 0.556875 2.3125 1.125 C3.6428125 1.558125 3.6428125 1.558125 5 2 C5.99 1.34 6.98 0.68 8 0 C7.67 1.65 7.34 3.3 7 5 C4.6568787 4.74438677 2.32156597 4.40729228 0 4 C-0.33 3.34 -0.66 2.68 -1 2 C-0.67 1.34 -0.34 0.68 0 0 Z " fill="#8F8F8F" transform="translate(123,69)"/>
<path d="M0 0 C0.33 0.66 0.66 1.32 1 2 C2.65 1.67 4.3 1.34 6 1 C3.47043472 4.0916909 0.77545388 4.90931332 -3 6 C-3 4.35 -3 2.7 -3 1 C-2.01 0.67 -1.02 0.34 0 0 Z " fill="#BBBBBA" transform="translate(113,165)"/>
<path d="M0 0 C0.66 0.33 1.32 0.66 2 1 C1.01 1.33 0.02 1.66 -1 2 C-1.33 2.99 -1.66 3.98 -2 5 C-5.0625 6.1875 -5.0625 6.1875 -8 7 C-6.89300099 3.78970286 -5.98396175 2.99031023 -3 1.1875 C-1.515 0.5996875 -1.515 0.5996875 0 0 Z " fill="#8D8C8D" transform="translate(162,140)"/>
<path d="M0 0 C3.93673644 1.31224548 6.22719294 2.91910327 9 6 C7.02 6.33 5.04 6.66 3 7 C3 5.68 3 4.36 3 3 C1.5833253 1.2488427 1.5833253 1.2488427 0 0 Z " fill="#C0C0C0" transform="translate(160,118)"/>
<path d="M0 0 C3.72114571 2.31537955 6.61229661 4.28579473 9 8 C7.68 8 6.36 8 5 8 C5 7.34 5 6.68 5 6 C4.360625 5.7525 3.72125 5.505 3.0625 5.25 C1 4 1 4 0.25 1.875 C0.1675 1.25625 0.085 0.6375 0 0 Z " fill="#969696" transform="translate(70,61)"/>
<path d="M0 0 C0.66 0.33 1.32 0.66 2 1 C1.01 1.33 0.02 1.66 -1 2 C-1.33 2.99 -1.66 3.98 -2 5 C-4.31 5.33 -6.62 5.66 -9 6 C-6.12050853 3.76039553 -3.23257974 1.70135776 0 0 Z " fill="#727272" transform="translate(89,136)"/>
<path d="M0 0 C1.32 0.33 2.64 0.66 4 1 C4 1.66 4 2.32 4 3 C-0.455 4.485 -0.455 4.485 -5 6 C-3.35 4.02 -1.7 2.04 0 0 Z " fill="#787877" transform="translate(163,92)"/>
<path d="M0 0 C3 0 3 0 5.1875 1.6875 C7.31050198 4.3961577 7.37254569 5.64708882 7 9 C6.34 8.67 5.68 8.34 5 8 C5 7.01 5 6.02 5 5 C4.34 5 3.68 5 3 5 C1.375 3.625 1.375 3.625 0 2 C0 1.34 0 0.68 0 0 Z " fill="#939393" transform="translate(104,74)"/>
<path d="M0 0 C1.32 0 2.64 0 4 0 C4.061875 0.61875 4.12375 1.2375 4.1875 1.875 C4.828919 4.27761141 4.828919 4.27761141 7.5625 5.25 C8.366875 5.4975 9.17125 5.745 10 6 C9.67 6.66 9.34 7.32 9 8 C4.30769231 6.51821862 4.30769231 6.51821862 2.8125 4 C2.544375 3.34 2.27625 2.68 2 2 C1.34 1.34 0.68 0.68 0 0 Z " fill="#8B8B8B" transform="translate(153,70)"/>
<path d="M0 0 C3.36591866 1.44253657 5.51047079 3.33264727 8 6 C7.01 6.33 6.02 6.66 5 7 C0 1.125 0 1.125 0 0 Z " fill="#8D8D8E" transform="translate(131,114)"/>
<path d="M0 0 C-0.33 0.99 -0.66 1.98 -1 3 C-3.375 3.1875 -3.375 3.1875 -6 3 C-6.66 2.01 -7.32 1.02 -8 0 C-4.94736336 -0.98120464 -3.05263664 -0.98120464 0 0 Z " fill="#B2B2B2" transform="translate(81,56)"/>
<path d="M0 0 C4.21912747 0.4794463 6.79663178 1.16625119 10 4 C6.53058454 3.54177532 3.32604951 3.10868317 0 2 C0 1.34 0 0.68 0 0 Z " fill="#6F6F70" transform="translate(149,26)"/>
<path d="M0 0 C2.46800047 1.15173355 4.04783565 2.04783565 6 4 C5.67 4.99 5.34 5.98 5 7 C1.18461538 4.53846154 1.18461538 4.53846154 0.25 1.8125 C0.1675 1.214375 0.085 0.61625 0 0 Z " fill="#777878" transform="translate(38,173)"/>
<path d="M0 0 C0.99 0.33 1.98 0.66 3 1 C3 1.66 3 2.32 3 3 C3.66 3 4.32 3 5 3 C5.33 4.65 5.66 6.3 6 8 C1.125 3.375 1.125 3.375 0 0 Z " fill="#6A6969" transform="translate(32,165)"/>
<path d="M0 0 C0.99 0.66 1.98 1.32 3 2 C-2.2734375 5.22265625 -2.2734375 5.22265625 -4 6 C-4.66 5.67 -5.32 5.34 -6 5 C-5.01 4.67 -4.02 4.34 -3 4 C-3 3.34 -3 2.68 -3 2 C-2.01 1.34 -1.02 0.68 0 0 Z " fill="#595958" transform="translate(108,124)"/>
<path d="M0 0 C3.79588866 0.54226981 5.47211993 2.20127563 8 5 C7.34 5 6.68 5 6 5 C5.67 5.66 5.34 6.32 5 7 C4.319375 5.7625 4.319375 5.7625 3.625 4.5 C2.820625 3.2625 2.820625 3.2625 2 2 C1.34 2 0.68 2 0 2 C0 1.34 0 0.68 0 0 Z " fill="#9D9D9A" transform="translate(167,124)"/>
<path d="M0 0 C0.66 0.99 1.32 1.98 2 3 C-3.2734375 6.22265625 -3.2734375 6.22265625 -5 7 C-5.66 6.67 -6.32 6.34 -7 6 C-6.21625 5.566875 -5.4325 5.13375 -4.625 4.6875 C-1.78301625 3.10779753 -1.78301625 3.10779753 0 0 Z " fill="#444444" transform="translate(118,118)"/>
<path d="M0 0 C0.33 0.66 0.66 1.32 1 2 C1.66 2.33 2.32 2.66 3 3 C3 4.65 3 6.3 3 8 C1.68 7.34 0.36 6.68 -1 6 C-0.67 4.02 -0.34 2.04 0 0 Z " fill="#707070" transform="translate(146,101)"/>
<path d="M0 0 C0.99 0.33 1.98 0.66 3 1 C3 1.99 3 2.98 3 4 C0.69 4.33 -1.62 4.66 -4 5 C-2.68 3.35 -1.36 1.7 0 0 Z " fill="#969696" transform="translate(114,87)"/>
<path d="M0 0 C1.98 0.99 1.98 0.99 4 2 C2.68 2 1.36 2 0 2 C0 1.34 0 0.68 0 0 Z " fill="#B3B3B3" transform="translate(75,201)"/>
<path d="M0 0 C0.66 0.33 1.32 0.66 2 1 C1.34 1.66 0.68 2.32 0 3 C0 2.01 0 1.02 0 0 Z " fill="#D3D3D3" transform="translate(107,166)"/>
<path d="M0 0 C0.66 0.66 1.32 1.32 2 2 C1.34 2.66 0.68 3.32 0 4 C0 2.68 0 1.36 0 0 Z " fill="#868686" transform="translate(101,125)"/>
<path d="M0 0 C0.33 0 0.66 0 1 0 C1 1.65 1 3.3 1 5 C0.67 5 0.34 5 0 5 C0 3.35 0 1.7 0 0 Z " fill="#B0B0B0" transform="translate(155,93)"/>
<path d="M0 0 C0.99 0.495 0.99 0.495 2 1 C1.01 1.495 1.01 1.495 0 2 C0 1.34 0 0.68 0 0 Z " fill="#CECECE" transform="translate(125,208)"/>
<path d="" fill="#717171" transform="translate(0,0)"/>
<path d="M0 0 C0.33 0.66 0.66 1.32 1 2 C0.34 1.67 -0.32 1.34 -1 1 C-0.67 0.67 -0.34 0.34 0 0 Z " fill="#CECECE" transform="translate(49,187)"/>
<path d="" fill="#9A9A9A" transform="translate(0,0)"/>
<path d="M0 0 C0.33 0.66 0.66 1.32 1 2 C0.34 1.67 -0.32 1.34 -1 1 C-0.67 0.67 -0.34 0.34 0 0 Z " fill="#CFCFCF" transform="translate(104,154)"/>
<path d="M0 0 C0.66 0.66 1.32 1.32 2 2 C1.34 2 0.68 2 0 2 C0 1.34 0 0.68 0 0 Z " fill="#929292" transform="translate(145,119)"/>
<path d="" fill="#D8D8D8" transform="translate(0,0)"/>
<path d="M0 0 C0.66 0 1.32 0 2 0 C1.67 0.66 1.34 1.32 1 2 C0.67 1.34 0.34 0.68 0 0 Z " fill="#CFCFCF" transform="translate(96,79)"/>
<path d="M0 0 C0.99 0.495 0.99 0.495 2 1 C1.01 1.495 1.01 1.495 0 2 C0 1.34 0 0.68 0 0 Z " fill="#CFCFCF" transform="translate(99,69)"/>
<path d="" fill="#8A8A8A" transform="translate(0,0)"/>
<path d="M0 0 C0.66 0.66 1.32 1.32 2 2 C1.34 2 0.68 2 0 2 C0 1.34 0 0.68 0 0 Z " fill="#CFCFCF" transform="translate(193,54)"/>
<path d="" fill="#D0D0D0" transform="translate(0,0)"/>
<path d="" fill="#D0D0D0" transform="translate(0,0)"/>
<path d="M0 0 C2 1 2 1 2 1 Z " fill="#C1C1C1" transform="translate(63,196)"/>
<path d="M0 0 C2 1 2 1 2 1 Z " fill="#C3C3C3" transform="translate(168,195)"/>
<path d="" fill="#D0D0D0" transform="translate(0,0)"/>
<path d="M0 0 C2 1 2 1 2 1 Z " fill="#C1C1C1" transform="translate(183,187)"/>
<path d="" fill="#D0D0D0" transform="translate(0,0)"/>
<path d="" fill="#747474" transform="translate(0,0)"/>
<path d="" fill="#747474" transform="translate(0,0)"/>
<path d="" fill="#D0D0D0" transform="translate(0,0)"/>
<path d="M0 0 C2 1 2 1 2 1 Z " fill="#C1C1C1" transform="translate(105,156)"/>
<path d="M0 0 C2 1 2 1 2 1 Z " fill="#C1C1C1" transform="translate(19,150)"/>
<path d="" fill="#D0D0D0" transform="translate(0,0)"/>
<path d="M0 0 C2 1 2 1 2 1 Z " fill="#C1C1C1" transform="translate(67,142)"/>
<path d="M0 0 C2 1 2 1 2 1 Z " fill="#C1C1C1" transform="translate(136,139)"/>
<path d="M0 0 C2 1 2 1 2 1 Z " fill="#C1C1C1" transform="translate(165,134)"/>
<path d="M0 0 C2 1 2 1 2 1 Z " fill="#C1C1C1" transform="translate(68,131)"/>
<path d="" fill="#D0D0D0" transform="translate(0,0)"/>
<path d="M0 0 C2 1 2 1 2 1 Z " fill="#C1C1C1" transform="translate(149,113)"/>
<path d="M0 0 C2 1 2 1 2 1 Z " fill="#C1C1C1" transform="translate(105,111)"/>
<path d="" fill="#747474" transform="translate(0,0)"/>
<path d="" fill="#D2D2D2" transform="translate(0,0)"/>
<path d="" fill="#D0D0D0" transform="translate(0,0)"/>
<path d="" fill="#D2D2D2" transform="translate(0,0)"/>
<path d="M0 0 C2 1 2 1 2 1 Z " fill="#C1C1C1" transform="translate(107,82)"/>
<path d="M0 0 C2 1 2 1 2 1 Z " fill="#C1C1C1" transform="translate(91,78)"/>
<path d="M0 0 C2 1 2 1 2 1 Z " fill="#C1C1C1" transform="translate(95,77)"/>
<path d="" fill="#D0D0D0" transform="translate(0,0)"/>
<path d="M0 0 C2 1 2 1 2 1 Z " fill="#C1C1C1" transform="translate(143,65)"/>
<path d="" fill="#4D4D4D" transform="translate(0,0)"/>
<path d="" fill="#000000" transform="translate(0,0)"/>
<path d="" fill="#000000" transform="translate(0,0)"/>
<path d="" fill="#B8B8B8" transform="translate(0,0)"/>
<path d="" fill="#B8B8B8" transform="translate(0,0)"/>
<path d="" fill="#B8B8B8" transform="translate(0,0)"/>
<path d="" fill="#B8B8B8" transform="translate(0,0)"/>
<path d="" fill="#B8B8B8" transform="translate(0,0)"/>
<path d="" fill="#B8B8B8" transform="translate(0,0)"/>
<path d="" fill="#B8B8B8" transform="translate(0,0)"/>
<path d="" fill="#B8B8B8" transform="translate(0,0)"/>
<path d="" fill="#B8B8B8" transform="translate(0,0)"/>
<path d="" fill="#B8B8B8" transform="translate(0,0)"/>
<path d="" fill="#B8B8B8" transform="translate(0,0)"/>
<path d="" fill="#B8B8B8" transform="translate(0,0)"/>
<path d="" fill="#B8B8B8" transform="translate(0,0)"/>
<path d="" fill="#B8B8B8" transform="translate(0,0)"/>
<path d="" fill="#B8B8B8" transform="translate(0,0)"/>
<path d="" fill="#B8B8B8" transform="translate(0,0)"/>
<path d="" fill="#000000" transform="translate(0,0)"/>
<path d="" fill="#B8B8B8" transform="translate(0,0)"/>
<path d="" fill="#B8B8B8" transform="translate(0,0)"/>
<path d="" fill="#B8B8B8" transform="translate(0,0)"/>
<path d="" fill="#B8B8B8" transform="translate(0,0)"/>
<path d="" fill="#B8B8B8" transform="translate(0,0)"/>
<path d="" fill="#B8B8B8" transform="translate(0,0)"/>
<path d="" fill="#B8B8B8" transform="translate(0,0)"/>
<path d="" fill="#B8B8B8" transform="translate(0,0)"/>
<path d="" fill="#B8B8B8" transform="translate(0,0)"/>
<path d="" fill="#B8B8B8" transform="translate(0,0)"/>
<path d="" fill="#B8B8B8" transform="translate(0,0)"/>
<path d="" fill="#B8B8B8" transform="translate(0,0)"/>
<path d="" fill="#B8B8B8" transform="translate(0,0)"/>
<path d="" fill="#B8B8B8" transform="translate(0,0)"/>
<path d="" fill="#B8B8B8" transform="translate(0,0)"/>
<path d="" fill="#B8B8B8" transform="translate(0,0)"/>
<path d="" fill="#B8B8B8" transform="translate(0,0)"/>
<path d="" fill="#B8B8B8" transform="translate(0,0)"/>
<path d="" fill="#B8B8B8" transform="translate(0,0)"/>
<path d="" fill="#B8B8B8" transform="translate(0,0)"/>
<path d="" fill="#B8B8B8" transform="translate(0,0)"/>
<path d="" fill="#B8B8B8" transform="translate(0,0)"/>
<path d="" fill="#B8B8B8" transform="translate(0,0)"/>
<path d="" fill="#B8B8B8" transform="translate(0,0)"/>
<path d="" fill="#B8B8B8" transform="translate(0,0)"/>
<path d="" fill="#BDBDBD" transform="translate(0,0)"/>
<path d="" fill="#B8B8B8" transform="translate(0,0)"/>
<path d="" fill="#B8B8B8" transform="translate(0,0)"/>
<path d="" fill="#B8B8B8" transform="translate(0,0)"/>
<path d="" fill="#B8B8B8" transform="translate(0,0)"/>
<path d="" fill="#B8B8B8" transform="translate(0,0)"/>
<path d="" fill="#B8B8B8" transform="translate(0,0)"/>
<path d="" fill="#B8B8B8" transform="translate(0,0)"/>
<path d="" fill="#B8B8B8" transform="translate(0,0)"/>
<path d="" fill="#B8B8B8" transform="translate(0,0)"/>
<path d="" fill="#B8B8B8" transform="translate(0,0)"/>
<path d="" fill="#B8B8B8" transform="translate(0,0)"/>
<path d="" fill="#B8B8B8" transform="translate(0,0)"/>
<path d="" fill="#B8B8B8" transform="translate(0,0)"/>
<path d="" fill="#B8B8B8" transform="translate(0,0)"/>
<path d="" fill="#B8B8B8" transform="translate(0,0)"/>
<path d="" fill="#B8B8B8" transform="translate(0,0)"/>
<path d="" fill="#B8B8B8" transform="translate(0,0)"/>
<path d="" fill="#B8B8B8" transform="translate(0,0)"/>
<path d="" fill="#B8B8B8" transform="translate(0,0)"/>
<path d="" fill="#B8B8B8" transform="translate(0,0)"/>
<path d="" fill="#B8B8B8" transform="translate(0,0)"/>
<path d="" fill="#B8B8B8" transform="translate(0,0)"/>
<path d="" fill="#B8B8B8" transform="translate(0,0)"/>
<path d="" fill="#B8B8B8" transform="translate(0,0)"/>
<path d="" fill="#BDBDBD" transform="translate(0,0)"/>
<path d="" fill="#B8B8B8" transform="translate(0,0)"/>
<path d="" fill="#B8B8B8" transform="translate(0,0)"/>
<path d="" fill="#B8B8B8" transform="translate(0,0)"/>
<path d="" fill="#B8B8B8" transform="translate(0,0)"/>
<path d="" fill="#B8B8B8" transform="translate(0,0)"/>
<path d="" fill="#B8B8B8" transform="translate(0,0)"/>
<path d="" fill="#B8B8B8" transform="translate(0,0)"/>
<path d="" fill="#B8B8B8" transform="translate(0,0)"/>
<path d="" fill="#B8B8B8" transform="translate(0,0)"/>
<path d="" fill="#B8B8B8" transform="translate(0,0)"/>
<path d="" fill="#B8B8B8" transform="translate(0,0)"/>
<path d="" fill="#B8B8B8" transform="translate(0,0)"/>
<path d="" fill="#B8B8B8" transform="translate(0,0)"/>
<path d="" fill="#B8B8B8" transform="translate(0,0)"/>
<path d="" fill="#B8B8B8" transform="translate(0,0)"/>
<path d="" fill="#B8B8B8" transform="translate(0,0)"/>
<path d="" fill="#B8B8B8" transform="translate(0,0)"/>
<path d="" fill="#B8B8B8" transform="translate(0,0)"/>
<path d="" fill="#B8B8B8" transform="translate(0,0)"/>
<path d="" fill="#B8B8B8" transform="translate(0,0)"/>
<path d="" fill="#B8B8B8" transform="translate(0,0)"/>
<path d="" fill="#B8B8B8" transform="translate(0,0)"/>
<path d="" fill="#B8B8B8" transform="translate(0,0)"/>
<path d="" fill="#B8B8B8" transform="translate(0,0)"/>
<path d="" fill="#B8B8B8" transform="translate(0,0)"/>
<path d="" fill="#B8B8B8" transform="translate(0,0)"/>
<path d="" fill="#B8B8B8" transform="translate(0,0)"/>
<path d="" fill="#B8B8B8" transform="translate(0,0)"/>
<path d="" fill="#B8B8B8" transform="translate(0,0)"/>
<path d="" fill="#B8B8B8" transform="translate(0,0)"/>
<path d="" fill="#B8B8B8" transform="translate(0,0)"/>
<path d="" fill="#B8B8B8" transform="translate(0,0)"/>
<path d="" fill="#B8B8B8" transform="translate(0,0)"/>
<path d="" fill="#B8B8B8" transform="translate(0,0)"/>
<path d="" fill="#B8B8B8" transform="translate(0,0)"/>
<path d="" fill="#B8B8B8" transform="translate(0,0)"/>
<path d="" fill="#B8B8B8" transform="translate(0,0)"/>
<path d="" fill="#B8B8B8" transform="translate(0,0)"/>
<path d="" fill="#B8B8B8" transform="translate(0,0)"/>
<path d="" fill="#B8B8B8" transform="translate(0,0)"/>
<path d="" fill="#B8B8B8" transform="translate(0,0)"/>
<path d="" fill="#B8B8B8" transform="translate(0,0)"/>
<path d="" fill="#B8B8B8" transform="translate(0,0)"/>
<path d="" fill="#B8B8B8" transform="translate(0,0)"/>
<path d="" fill="#B8B8B8" transform="translate(0,0)"/>
<path d="" fill="#B8B8B8" transform="translate(0,0)"/>
<path d="" fill="#B8B8B8" transform="translate(0,0)"/>
<path d="" fill="#B8B8B8" transform="translate(0,0)"/>
<path d="" fill="#B8B8B8" transform="translate(0,0)"/>
<path d="" fill="#B8B8B8" transform="translate(0,0)"/>
<path d="" fill="#B8B8B8" transform="translate(0,0)"/>
<path d="" fill="#B8B8B8" transform="translate(0,0)"/>
<path d="" fill="#B8B8B8" transform="translate(0,0)"/>
<path d="" fill="#B8B8B8" transform="translate(0,0)"/>
<path d="" fill="#B8B8B8" transform="translate(0,0)"/>
<path d="" fill="#B8B8B8" transform="translate(0,0)"/>
<path d="" fill="#B8B8B8" transform="translate(0,0)"/>
<path d="" fill="#B8B8B8" transform="translate(0,0)"/>
<path d="" fill="#B8B8B8" transform="translate(0,0)"/>
<path d="" fill="#B8B8B8" transform="translate(0,0)"/>
<path d="" fill="#B8B8B8" transform="translate(0,0)"/>
<path d="" fill="#B8B8B8" transform="translate(0,0)"/>
<path d="" fill="#B8B8B8" transform="translate(0,0)"/>
<path d="" fill="#B8B8B8" transform="translate(0,0)"/>
<path d="" fill="#000000" transform="translate(0,0)"/>
<path d="" fill="#B8B8B8" transform="translate(0,0)"/>
<path d="" fill="#B8B8B8" transform="translate(0,0)"/>
<path d="" fill="#B8B8B8" transform="translate(0,0)"/>
<path d="" fill="#B8B8B8" transform="translate(0,0)"/>
<path d="" fill="#B8B8B8" transform="translate(0,0)"/>
<path d="" fill="#BDBDBD" transform="translate(0,0)"/>
<path d="" fill="#B8B8B8" transform="translate(0,0)"/>
<path d="" fill="#000000" transform="translate(0,0)"/>
</svg>
